# xmcd
#
# Track frame offsets:
#	150
#	16253
#	34097
#	49062
#	62528
#	81945
#	99399
#	115074
#	128489
#	142555
#	155093
#	160954
#
# Disc length: 2308
#
# Revision: 2
# Processed by: cddbd v1.5.1PL0 Copyright (c) Steve Scherf et al.
# Submitted via: VisiTrax 2.9.5.180 - For more info visit www.synapsa.com
# Normalized: r1:DSETVAR1
#
DISCID=8b09020c
DTITLE=Various Artist - CDX 177 December 1997
DYEAR=1997
DGENRE=Country
TTITLE0=Garth Brooks - Belleau Woods
TTITLE1=Melodie Crittenden - Broken Road
TTITLE2=Wynonna - Come Some Rainy Day
TTITLE3=Bill Engvall - It's Hard To Be A Parent
TTITLE4=Sons of the Desert - Leaving October
TTITLE5=Clint Black - Nothin' But The Taillights
TTITLE6=Jerry Adams - Somewhere I've Never Been
TTITLE7=Catus Choir - Step Right Up
TTITLE8=Clay Walker - Then What?
TTITLE9=Kacey Jones - But I'm Not Bitter
TTITLE10=Kacey Jones - Comedy bit
TTITLE11=River Road - Somebody Will
EXTD=YEAR: 1997
EXTT0=
EXTT1=
EXTT2=
EXTT3=
EXTT4=
EXTT5=
EXTT6=
EXTT7=
EXTT8=
EXTT9=
EXTT10=
EXTT11=
PLAYORDER=
